<?xml version="1.0" encoding="UTF-8"?>
<svg width="24px" height="24px" viewBox="0 0 24 24" version="1.1" xmlns="http://www.w3.org/2000/svg" xmlns:xlink="http://www.w3.org/1999/xlink">
    <!-- Generator: Sketch 50.2 (55047) - http://www.bohemiancoding.com/sketch -->
    <title>icn/social/apple</title>
    <desc>Created with Sketch.</desc>
    <defs></defs>
    <g id="icn/social/apple" stroke="none" stroke-width="1" fill="none" fill-rule="evenodd">
        <path d="M22,17.5806042 C21.4272123,18.8353778 21.1511952,19.3962393 20.4144573,20.5036332 C19.3830245,22.0511192 17.9282264,23.9834297 16.1310015,23.9957116 C14.5309314,24.0100398 14.117943,22.9661011 11.9450858,22.9845234 C9.77430316,22.994758 9.32188416,24.0161807 7.71973888,23.9998052 C5.92043828,23.9834297 4.54450249,22.2435317 3.51306972,20.6980926 C0.628377815,16.3647227 0.323306508,11.2842197 2.10600403,8.58226007 C3.36779721,6.6663251 5.36217794,5.54050887 7.23618945,5.54050887 C9.14548175,5.54050887 10.3450157,6.57421297 11.9222571,6.57421297 C13.4538413,6.57421297 14.3856594,5.53846154 16.5937975,5.53846154 C18.2623529,5.53846154 20.0263727,6.43502112 21.2881659,7.98250706 C17.1624343,10.2136704 17.832762,16.0249306 22,17.5806042 Z M15.1824961,3.73681136 C16.0518023,2.76547506 16.712206,1.39544131 16.4718549,0 C15.0544583,0.0840392926 13.3967112,0.871662314 12.4285686,1.89185847 C11.5502769,2.82215251 10.8224853,4.20195863 11.1055156,5.53681294 C12.6531956,5.57980997 14.2547861,4.77655176 15.1824961,3.73681136 Z" id="Shape" fill="#B8BDCA" fill-rule="nonzero"></path>
    </g>
</svg>