<?xml version="1.0" encoding="UTF-8"?>
<svg width="30px" height="30px" viewBox="0 0 30 30" version="1.1" xmlns="http://www.w3.org/2000/svg" xmlns:xlink="http://www.w3.org/1999/xlink">
    <!-- Generator: Sketch 50.2 (55047) - http://www.bohemiancoding.com/sketch -->
    <title>icn/social/facebook</title>
    <desc>Created with Sketch.</desc>
    <defs></defs>
    <g id="icn/social/facebook" stroke="none" stroke-width="1" fill="none" fill-rule="evenodd">
        <path d="M15,3 C8.38330435,3 3,8.38278261 3,15 C3,21.6172174 8.38330435,27 15,27 C21.6172174,27 27,21.6172174 27,15 C27,8.38278261 21.6172174,3 15,3 Z M18.6521739,10.3043478 L16.9356522,10.3043478 C15.9245217,10.3043478 15.5217391,10.5417391 15.5217391,11.2466087 L15.5217391,12.9130435 L18.6521739,12.9130435 L18.1304348,15.5217391 L15.5217391,15.5217391 L15.5217391,22.3043478 L12.3913043,22.3043478 L12.3913043,15.5217391 L10.826087,15.5217391 L10.826087,12.9130435 L12.3913043,12.9130435 L12.3913043,11.4657391 C12.3913043,9.2613913 13.2709565,7.69565217 15.8248696,7.69565217 C17.1928696,7.69565217 18.6521739,8.2173913 18.6521739,8.2173913 L18.6521739,10.3043478 Z" id="Shape" fill="#3B5998" fill-rule="nonzero"></path>
    </g>
</svg>