<?xml version="1.0" encoding="UTF-8"?>
<svg width="24px" height="24px" viewBox="0 0 24 24" version="1.1" xmlns="http://www.w3.org/2000/svg" xmlns:xlink="http://www.w3.org/1999/xlink">
    <!-- Generator: Sketch 50.2 (55047) - http://www.bohemiancoding.com/sketch -->
    <title>icn/social/google play</title>
    <desc>Created with Sketch.</desc>
    <defs></defs>
    <g id="icn/social/google-play" stroke="none" stroke-width="1" fill="none" fill-rule="evenodd">
        <path d="M3.100995,0 L14.3214293,11.225017 L17.3977389,8.12508498 L3.79721242,0.212100612 C3.57053698,0.07953786 3.32767044,0.0061184174 3.100995,0 Z M2.16191103,0.522093814 C2.06071689,0.703602861 2,0.917743293 2,1.15839565 L2,22.9721278 C2,23.147519 2.03643024,23.3045549 2.09714662,23.4452753 L13.5766386,11.9592114 L2.16191103,0.522093814 Z M18.3368228,8.66349422 L15.0500289,11.9592114 L18.3368228,15.2386132 L22.3522163,12.9218219 C22.922953,12.5893948 23.0039085,12.1672334 22.9998605,11.942896 C22.9937887,11.5717202 22.761042,11.225017 22.3684075,11.0129164 C22.0263705,10.8273282 19.4863911,9.33650604 18.3368228,8.66349422 Z M14.3214293,12.6934058 L3.00384838,24 C3.19206982,23.989803 3.39648288,23.9490144 3.58672808,23.8368457 C4.02995966,23.5778381 12.9937589,18.3548606 12.9937589,18.3548606 L17.41393,15.7933379 L14.3214293,12.6934058 Z" id="Shape" fill="#B8BDCA" fill-rule="nonzero"></path>
    </g>
</svg>