<?xml version="1.0" encoding="UTF-8"?>
<svg width="30px" height="30px" viewBox="0 0 30 30" version="1.1" xmlns="http://www.w3.org/2000/svg" xmlns:xlink="http://www.w3.org/1999/xlink">
    <!-- Generator: Sketch 50.2 (55047) - http://www.bohemiancoding.com/sketch -->
    <title>icn/social/instagram</title>
    <desc>Created with Sketch.</desc>
    <defs>
        <radialGradient cx="1.82641464%" cy="90.8289542%" fx="1.82641464%" fy="90.8289542%" r="144.880586%" gradientTransform="translate(0.018264,0.908290),scale(1.000000,0.997901),rotate(-87.006216),translate(-0.018264,-0.908290)" id="radialGradient-1">
            <stop stop-color="#FED576" offset="0%"></stop>
            <stop stop-color="#F47133" offset="26.34%"></stop>
            <stop stop-color="#BC3081" offset="60.91%"></stop>
            <stop stop-color="#4C63D2" offset="100%"></stop>
        </radialGradient>
    </defs>
    <g id="icn/social/instagram" stroke="none" stroke-width="1" fill="none" fill-rule="evenodd">
        <path d="M3.04042105,14.7012658 L3.04042105,15.3493671 C3.20715789,21.5468354 8.18905263,26.5240506 14.1157895,26.9898734 L15.9397895,26.9898734 C21.9018947,26.5189873 26.7978947,21.4962025 26.9595789,15.3392405 L26.9595789,14.7012658 C26.7978947,8.43291139 21.7301053,3.34936709 15.6265263,3.03544304 C9.05810526,2.70126582 3.22231579,7.98227848 3.04042105,14.7012658 Z" id="Shape" fill="url(#radialGradient-1)" fill-rule="nonzero"></path>
        <path d="M15.0555789,7.72911392 C16.9907368,7.72911392 17.2383158,7.73924051 17.9962105,7.77468354 C18.7541053,7.81012658 19.2745263,7.93164557 19.7292632,8.11392405 C20.1991579,8.30126582 20.5932632,8.54936709 20.9924211,8.95443038 C21.3915789,9.35949367 21.6341053,9.76962025 21.816,10.2455696 C21.9928421,10.7113924 22.1141053,11.2379747 22.1494737,12.0126582 C22.1797895,12.7873418 22.1898947,13.035443 22.1898947,15.0101266 C22.1898947,16.9848101 22.1848421,17.2329114 22.1494737,18.0075949 C22.1141053,18.7822785 21.9928421,19.3139241 21.816,19.7746835 C21.6341053,20.2556962 21.3915789,20.6607595 20.9924211,21.0658228 C20.5983158,21.4708861 20.1991579,21.7189873 19.7292632,21.9063291 C19.2745263,22.0886076 18.7541053,22.2101266 17.9962105,22.2455696 C17.2383158,22.2810127 16.9907368,22.2911392 15.0555789,22.2911392 C13.1204211,22.2911392 12.8778947,22.2810127 12.1149474,22.2455696 C11.3570526,22.2101266 10.8366316,22.0886076 10.3818947,21.9063291 C9.912,21.7189873 9.51789474,21.4708861 9.11873684,21.0658228 C8.71957895,20.6607595 8.47705263,20.2506329 8.29515789,19.7746835 C8.11831579,19.3088608 7.99705263,18.7822785 7.96168421,18.0075949 C7.93136842,17.2329114 7.92126316,16.9848101 7.92126316,15.0101266 C7.92126316,13.035443 7.92631579,12.7873418 7.96168421,12.0126582 C7.99705263,11.2379747 8.11831579,10.7063291 8.29515789,10.2455696 C8.47705263,9.76455696 8.71957895,9.35949367 9.11873684,8.95443038 C9.51284211,8.54936709 9.912,8.30126582 10.3818947,8.11392405 C10.8366316,7.93164557 11.3570526,7.81012658 12.1149474,7.77468354 C12.8728421,7.73924051 13.1153684,7.72911392 15.0555789,7.72911392 Z M15.0555789,9.04050633 C13.1507368,9.04050633 12.9233684,9.05063291 12.1705263,9.08101266 C11.4783158,9.11139241 11.0993684,9.2278481 10.8467368,9.32911392 C10.5132632,9.46075949 10.2757895,9.61772152 10.0282105,9.87088608 C9.77557895,10.1240506 9.624,10.3670886 9.49263158,10.7063291 C9.39157895,10.964557 9.27536842,11.3493671 9.24505263,12.0582278 C9.20968421,12.8278481 9.20463158,13.0556962 9.20463158,15 C9.20463158,16.9443038 9.20968421,17.1721519 9.24505263,17.9417722 C9.28042105,18.6506329 9.39663158,19.035443 9.49263158,19.2936709 C9.624,19.6329114 9.78063158,19.8759494 10.0282105,20.1291139 C10.2757895,20.3822785 10.5132632,20.5392405 10.8467368,20.6708861 C11.0993684,20.7670886 11.4732632,20.8886076 12.1705263,20.9189873 C12.9233684,20.9544304 13.1507368,20.9594937 15.0555789,20.9594937 C16.9604211,20.9594937 17.1877895,20.9544304 17.9406316,20.9189873 C18.6328421,20.8886076 19.0117895,20.7721519 19.2644211,20.6708861 C19.5978947,20.5392405 19.8353684,20.3822785 20.0829474,20.1291139 C20.3355789,19.8759494 20.4871579,19.6329114 20.6185263,19.2936709 C20.7195789,19.035443 20.8357895,18.6506329 20.8661053,17.9417722 C20.9014737,17.1721519 20.9065263,16.9443038 20.9065263,15 C20.9065263,13.0556962 20.9014737,12.8278481 20.8661053,12.0582278 C20.8307368,11.3493671 20.7145263,10.964557 20.6185263,10.7063291 C20.4871579,10.3670886 20.3305263,10.1240506 20.0829474,9.87088608 C19.8353684,9.61772152 19.5978947,9.46075949 19.2644211,9.32911392 C19.0117895,9.23291139 18.6378947,9.11139241 17.9406316,9.08101266 C17.1877895,9.04556962 16.9604211,9.04050633 15.0555789,9.04050633 Z M15.0555789,11.2683544 C17.0766316,11.2683544 18.7187368,12.9392405 18.7187368,15.0050633 C18.7187368,17.0708861 17.0766316,18.7417722 15.0555789,18.7417722 C13.0345263,18.7417722 11.3924211,17.0708861 11.3924211,15.0050633 C11.3924211,12.9392405 13.0294737,11.2683544 15.0555789,11.2683544 Z M18.8652632,11.9924051 C18.3936701,11.9924051 18.0113684,11.6024961 18.0113684,11.121519 C18.0113684,10.6405419 18.3936701,10.2506329 18.8652632,10.2506329 C19.3368562,10.2506329 19.7191579,10.6405419 19.7191579,11.121519 C19.7191579,11.6024961 19.3368562,11.9924051 18.8652632,11.9924051 Z M15.0555789,17.4303797 C16.3692632,17.4303797 17.4353684,16.3468354 17.4353684,15.0050633 C17.4353684,13.6632911 16.3692632,12.5797468 15.0555789,12.5797468 C13.7418947,12.5797468 12.6757895,13.6632911 12.6757895,15.0050633 C12.6757895,16.3468354 13.7418947,17.4303797 15.0555789,17.4303797 Z" id="Combined-Shape" fill="#FFFFFF" fill-rule="nonzero"></path>
    </g>
</svg>