<?xml version="1.0" encoding="UTF-8"?>
<svg width="30px" height="30px" viewBox="0 0 30 30" version="1.1" xmlns="http://www.w3.org/2000/svg" xmlns:xlink="http://www.w3.org/1999/xlink">
    <!-- Generator: Sketch 51.2 (57519) - http://www.bohemiancoding.com/sketch -->
    <title>icn/social/mail</title>
    <desc>Created with Sketch.</desc>
    <defs></defs>
    <g id="icn/social/mail" stroke="none" stroke-width="1" fill="none" fill-rule="evenodd">
        <circle id="Oval" fill="#0987EB" cx="15" cy="15" r="12"></circle>
        <path d="M8,10.72 L8,10.7692308 C9.87824,12.4255164 13.8274841,15.8721319 14.1444441,16.1538462 C14.5392444,16.5044176 14.85048,16.5384615 15,16.5384615 C15.14952,16.5384615 15.3832575,16.5041319 15.7777778,16.1538462 C16.0829775,15.8827033 19.97952,12.5695165 22,10.7692308 L22,10.72 C22,10.322355 21.677645,10 21.28,10 L8.71999996,10 C8.32235496,10 8,10.322355 8,10.72 Z M22,11.5384615 C19.92464,13.3872064 16.5885755,16.358918 16.3010155,16.6140456 C15.7642555,17.0908737 15.21224,17.1424731 15,17.1424731 C14.78776,17.1424731 14.2357445,17.0908869 13.6989845,16.6134874 C13.4013445,16.3495034 9.97232,13.3257724 8,11.5864498 L8,19.28 C8,19.677645 8.32235496,20 8.71999996,20 L21.28,20 C21.677645,20 22,19.677645 22,19.28 L22,11.5384615 Z" id="Shape" fill="#FFFFFF" fill-rule="nonzero"></path>
    </g>
</svg>