<?xml version="1.0" encoding="UTF-8"?>
<svg width="30px" height="30px" viewBox="0 0 30 30" version="1.1" xmlns="http://www.w3.org/2000/svg" xmlns:xlink="http://www.w3.org/1999/xlink">
    <!-- Generator: Sketch 50.2 (55047) - http://www.bohemiancoding.com/sketch -->
    <title>icn/social/twitter</title>
    <desc>Created with Sketch.</desc>
    <defs></defs>
    <g id="icn/social/twitter" stroke="none" stroke-width="1" fill="none" fill-rule="evenodd">
        <circle id="Oval" fill="#1DA1F2" cx="15" cy="15" r="12"></circle>
        <path d="M23,10.420585 C22.4855901,10.6615385 21.9317367,10.8244854 21.3507659,10.8972914 C21.9440628,10.5228602 22.3993072,9.92914409 22.6137817,9.22188516 C22.058285,9.56858071 21.4444445,9.82080173 20.7886953,9.956013 C20.266068,9.36749729 19.5191053,9 18.6924342,9 C17.1072959,9 15.8212713,10.3564464 15.8212713,12.0292524 C15.8212713,12.2667389 15.8459236,12.4972914 15.8952281,12.7191766 C13.5080706,12.5926327 11.3920878,11.3878657 9.97458462,9.55297942 C9.72724079,10.0019502 9.58590117,10.5228602 9.58590117,11.0775731 C9.58590117,12.1280607 10.0929155,13.0554713 10.8637083,13.5989166 C10.3936726,13.584182 9.94993238,13.4463705 9.56207083,13.2210184 L9.56207083,13.2582882 C9.56207083,14.7265439 10.5522687,15.9512459 11.8670542,16.2286024 C11.6262839,16.299675 11.3723659,16.3352113 11.1102308,16.3352113 C10.9253389,16.3352113 10.744556,16.3170098 10.5695251,16.2814735 C10.9351999,17.484507 11.9952457,18.3607801 13.2525093,18.384182 C12.269707,19.1971831 11.0305218,19.6816901 9.68533179,19.6816901 C9.45360088,19.6816901 9.22433512,19.6678223 9,19.6400867 C10.2712332,20.4981582 11.7815929,21 13.4028877,21 C18.686682,21 21.5751013,16.3846154 21.5751013,12.3811484 C21.5751013,12.2494041 21.5726361,12.1176598 21.5677055,11.9885157 C22.1289547,11.5612134 22.6162469,11.028169 23,10.420585" id="Twitter" fill="#FFFFFF" fill-rule="nonzero"></path>
    </g>
</svg>