<?xml version="1.0" encoding="utf-8"?>
<!-- Generator: Adobe Illustrator 16.0.0, SVG Export Plug-In . SVG Version: 6.00 Build 0)  -->
<!DOCTYPE svg PUBLIC "-//W3C//DTD SVG 1.1//EN" "http://www.w3.org/Graphics/SVG/1.1/DTD/svg11.dtd">
<svg version="1.1" id="Layer_1" xmlns="http://www.w3.org/2000/svg" xmlns:xlink="http://www.w3.org/1999/xlink" x="0px" y="0px"
	 width="30px" height="30px" viewBox="0 0 30 30" enable-background="new 0 0 30 30" xml:space="preserve">
<title>icn/social/instagram</title>
<desc>Created with Sketch.</desc>
<g id="icn_x2F_social" display="none">
	
		<radialGradient id="Shape_1_" cx="-49.7339" cy="51.6328" r="1.4488" gradientTransform="matrix(1.2492 -23.8865 -23.8865 -1.2492 1298.9315 -1098.6636)" gradientUnits="userSpaceOnUse">
		<stop  offset="0" style="stop-color:#FED576"/>
		<stop  offset="0.2634" style="stop-color:#F47133"/>
		<stop  offset="0.6091" style="stop-color:#BC3081"/>
		<stop  offset="1" style="stop-color:#4C63D2"/>
	</radialGradient>
	<path id="Shape" display="inline" fill="url(#Shape_1_)" d="M3.041,14.701v0.648c0.167,6.197,5.148,11.174,11.075,11.641h1.824
		c5.963-0.471,10.858-5.494,11.02-11.651v-0.638C26.798,8.433,21.73,3.35,15.627,3.036C9.058,2.701,3.222,7.982,3.041,14.701z"/>
	<path id="Combined-Shape" display="inline" fill="#FFFFFF" d="M15.056,7.729c1.935,0,2.183,0.01,2.94,0.046
		c0.758,0.035,1.278,0.157,1.733,0.339c0.47,0.188,0.864,0.436,1.263,0.841c0.399,0.405,0.643,0.815,0.824,1.291
		c0.176,0.466,0.298,0.992,0.333,1.767c0.03,0.774,0.04,1.023,0.04,2.998c0,1.974-0.004,2.222-0.04,2.998
		c-0.035,0.774-0.157,1.307-0.333,1.768c-0.182,0.48-0.425,0.885-0.824,1.291c-0.395,0.404-0.793,0.652-1.263,0.84
		c-0.455,0.183-0.976,0.304-1.733,0.34c-0.758,0.035-1.006,0.045-2.94,0.045c-1.935,0-2.178-0.01-2.941-0.045
		c-0.758-0.036-1.278-0.157-1.733-0.34c-0.47-0.188-0.864-0.436-1.263-0.84C8.72,20.66,8.477,20.25,8.295,19.775
		c-0.177-0.467-0.298-0.993-0.333-1.768c-0.031-0.775-0.041-1.023-0.041-2.998c0-1.975,0.005-2.223,0.041-2.998
		c0.035-0.775,0.156-1.306,0.333-1.767C8.477,9.765,8.72,9.359,9.119,8.955c0.394-0.405,0.793-0.653,1.263-0.841
		c0.455-0.182,0.975-0.304,1.733-0.339C12.873,7.739,13.115,7.729,15.056,7.729z M15.056,9.041c-1.905,0-2.132,0.01-2.885,0.041
		c-0.692,0.03-1.071,0.147-1.324,0.248c-0.333,0.132-0.571,0.289-0.818,0.542c-0.253,0.253-0.404,0.496-0.536,0.835
		c-0.101,0.258-0.217,0.643-0.248,1.352C9.209,12.828,9.205,13.056,9.205,15s0.005,2.172,0.041,2.941
		c0.035,0.709,0.151,1.094,0.248,1.352c0.131,0.34,0.288,0.583,0.536,0.836c0.248,0.254,0.485,0.41,0.818,0.542
		c0.253,0.097,0.626,0.218,1.324,0.248c0.753,0.036,0.98,0.04,2.885,0.04c1.905,0,2.132-0.004,2.885-0.04
		c0.692-0.03,1.071-0.147,1.324-0.248c0.333-0.132,0.571-0.288,0.818-0.542c0.253-0.253,0.404-0.496,0.536-0.836
		c0.101-0.258,0.217-0.643,0.247-1.352c0.035-0.77,0.04-0.997,0.04-2.941s-0.005-2.172-0.04-2.942
		c-0.036-0.708-0.151-1.094-0.247-1.352c-0.132-0.339-0.289-0.583-0.536-0.835c-0.247-0.253-0.485-0.41-0.818-0.542
		c-0.253-0.096-0.627-0.218-1.324-0.248C17.188,9.045,16.961,9.041,15.056,9.041z M15.056,11.269c2.021,0,3.663,1.671,3.663,3.736
		s-1.643,3.737-3.663,3.737c-2.021,0-3.663-1.672-3.663-3.737S13.029,11.269,15.056,11.269z M18.865,11.992
		c-0.472,0-0.854-0.39-0.854-0.871s0.382-0.871,0.854-0.871s0.854,0.39,0.854,0.871S19.337,11.992,18.865,11.992z M15.056,17.43
		c1.313,0,2.38-1.083,2.38-2.425s-1.066-2.425-2.38-2.425c-1.314,0-2.38,1.083-2.38,2.425S13.742,17.43,15.056,17.43z"/>
</g>
<g transform="translate(1.4065934065934016 1.4065934065934016) scale(2.81 2.81)" display="none">
	<path display="inline" d="M4.867,9.103L4.867,9.103c-2.346,0-4.247-1.901-4.247-4.248l0,0c0-2.346,1.902-4.247,4.247-4.247l0,0
		c2.346,0,4.248,1.902,4.248,4.247l0,0C9.115,7.202,7.213,9.103,4.867,9.103z"/>
	<path display="inline" fill="#00F2EA" d="M4.397,4.345V4.157C4.332,4.148,4.267,4.143,4.201,4.143
		c-0.804,0-1.458,0.654-1.458,1.458c0,0.493,0.246,0.929,0.622,1.193C3.114,6.525,2.974,6.17,2.974,5.802
		C2.974,5.01,3.61,4.363,4.397,4.345"/>
	<path display="inline" fill="#00F2EA" d="M4.432,6.467c0.359,0,0.651-0.285,0.665-0.641l0.001-3.173h0.58
		C5.665,2.587,5.658,2.519,5.658,2.452H4.866L4.865,5.625C4.852,5.981,4.559,6.267,4.201,6.267c-0.108,0-0.214-0.026-0.309-0.076
		C4.017,6.364,4.218,6.467,4.432,6.467 M6.76,3.73V3.554c-0.213,0-0.422-0.062-0.6-0.178C6.317,3.556,6.527,3.68,6.76,3.73"/>
	<path display="inline" fill="#FF004F" d="M6.16,3.376c-0.175-0.2-0.271-0.457-0.271-0.722H5.677C5.733,2.95,5.907,3.211,6.16,3.376
		 M4.201,4.935C3.833,4.936,3.535,5.233,3.535,5.601c0,0.247,0.138,0.474,0.357,0.589C3.81,6.077,3.766,5.941,3.766,5.802
		c0-0.367,0.298-0.665,0.666-0.666c0.069,0,0.134,0.011,0.196,0.031V4.359C4.563,4.349,4.497,4.345,4.432,4.344
		c-0.011,0-0.023,0.001-0.034,0.001v0.621C4.334,4.946,4.268,4.936,4.201,4.935"/>
	<path display="inline" fill="#FF004F" d="M6.76,3.73v0.615c-0.41,0-0.791-0.132-1.102-0.354v1.609c0,0.804-0.653,1.458-1.457,1.458
		c-0.311,0-0.598-0.098-0.835-0.264c0.275,0.296,0.661,0.465,1.066,0.465c0.803,0,1.458-0.654,1.458-1.458V4.192
		C6.21,4.423,6.596,4.547,6.991,4.547V3.755C6.912,3.755,6.834,3.746,6.76,3.73"/>
	<path display="inline" fill="#FFFFFF" d="M5.658,5.601V3.991C5.979,4.222,6.365,4.346,6.76,4.346V3.73
		c-0.233-0.05-0.443-0.175-0.6-0.355C5.907,3.211,5.733,2.95,5.677,2.653h-0.58L5.096,5.827C5.083,6.182,4.791,6.468,4.432,6.468
		C4.218,6.467,4.017,6.364,3.892,6.19C3.673,6.075,3.536,5.848,3.535,5.601c0-0.368,0.298-0.665,0.666-0.666
		c0.068,0,0.134,0.012,0.196,0.031V4.345C3.61,4.363,2.974,5.01,2.974,5.802c0,0.383,0.149,0.732,0.391,0.993
		C3.61,6.966,3.902,7.059,4.201,7.058C5.004,7.058,5.658,6.405,5.658,5.601"/>
</g>
<g>
	<circle cx="15.056" cy="15.01" r="11.927" fill="#1D9BF0" />
	<g id="layer1" transform="translate(52.390088,-25.058597)">
		<path id="path1009" fill="#FFFFFF" d="M-44.682,33.157l5.702,7.622l-5.737,6.198h1.291l5.024-5.425l4.058,5.425h4.395
			l-6.022-8.052l5.34-5.769h-1.292l-4.625,4.997l-3.738-4.997H-44.682z M-42.784,34.11h2.02l8.915,11.917h-2.02L-42.784,34.11z"/>
	</g>
</g>
</svg>
