<?xml version="1.0" encoding="UTF-8"?>
<svg width="30px" height="30px" viewBox="0 0 30 30" version="1.1" xmlns="http://www.w3.org/2000/svg" xmlns:xlink="http://www.w3.org/1999/xlink">
    <!-- Generator: Sketch 50.2 (55047) - http://www.bohemiancoding.com/sketch -->
    <title>icn/social/youtube</title>
    <desc>Created with Sketch.</desc>
    <defs></defs>
    <g id="icn/social/youtube" stroke="none" stroke-width="1" fill="none" fill-rule="evenodd">
        <circle id="Oval" fill="#FF0000" cx="15" cy="15" r="12"></circle>
        <path d="M21.6092079,11.71875 C21.4797896,11.0314941 20.8631503,10.5310059 20.147544,10.3747559 C19.0766721,10.15625 17.0947978,10 14.9505167,10 C12.8075039,10 10.7939099,10.15625 9.72176898,10.3747559 C9.00743173,10.5310059 8.38952337,10.9997559 8.26010505,11.71875 C8.12941832,12.5 8,13.59375 8,15 C8,16.40625 8.12941832,17.5 8.29182543,18.28125 C8.42251215,18.9685059 9.03915178,19.4689941 9.75348936,19.6252441 C10.8903391,19.84375 12.8392243,20 14.9835054,20 C17.1277869,20 19.0766721,19.84375 20.2135219,19.6252441 C20.9278591,19.4689941 21.5444987,19.0002441 21.6751858,18.28125 C21.8046038,17.5 21.9670109,16.3745119 22,15 C21.9340221,13.59375 21.771615,12.5 21.6092079,11.71875 Z M13.1970273,17.1875 L13.1970273,12.8125 L17.159507,15 L13.1970273,17.1875 Z" id="Shape" fill="#FFFFFF" fill-rule="nonzero"></path>
    </g>
</svg>